<svg xmlns="http://www.w3.org/2000/svg" viewBox="271 245 714 755" fill="none">
  <defs>
    <linearGradient id="upper" x1="541" y1="292" x2="784" y2="647" gradientUnits="userSpaceOnUse">
      <stop stop-color="#C95442"/><stop offset=".45" stop-color="#BC493B"/><stop offset="1" stop-color="#8D2D26"/>
    </linearGradient>
    <linearGradient id="cream" x1="347" y1="499" x2="657" y2="659" gradientUnits="userSpaceOnUse">
      <stop stop-color="#F3E1CC"/><stop offset="1" stop-color="#DFB39B"/>
    </linearGradient>
    <linearGradient id="lower" x1="503" y1="629" x2="697" y2="950" gradientUnits="userSpaceOnUse">
      <stop stop-color="#8C2D26"/><stop offset=".5" stop-color="#BC4D3E"/><stop offset="1" stop-color="#A63D32"/>
    </linearGradient>
    <linearGradient id="coral" x1="602" y1="718" x2="933" y2="586" gradientUnits="userSpaceOnUse">
      <stop stop-color="#DA6A50"/><stop offset="1" stop-color="#ED886E"/>
    </linearGradient>
  </defs>
  <path d="M523 269C660 301 752 348 789 438C821 516 780 629 677 682C698 656 706 621 700 589C694 536 654 497 597 466C550 441 523 425 523 371V269Z" fill="url(#upper)"/>
  <path d="M295 708C307 600 352 522 420 478C447 461 472 455 498 455C589 455 674 501 699 579C676 556 650 548 621 550C548 550 484 592 444 651C420 688 391 708 356 708H295Z" fill="url(#cream)"/>
  <path d="M599 563C513 587 452 650 452 729C450 849 549 930 735 976V898C735 852 717 830 674 804C612 767 573 718 561 664C552 629 570 590 599 563Z" fill="url(#lower)"/>
  <path d="M560 657C572 690 604 705 635 700C703 690 751 650 791 600C819 566 846 554 879 554H961C956 672 899 760 815 788C710 827 599 745 571 699C565 685 561 671 560 657Z" fill="url(#coral)"/>
</svg>
